<svg width="100%" height="100%" viewBox="0 0 35 27" xmlns="http://www.w3.org/2000/svg">
  <g stroke="none" stroke-width="1" fill="none" fill-rule="evenodd">
    <g transform="translate(-680.000000, -819.000000)" stroke="__COLOR__" stroke-width="1.5" stroke-linecap="round" stroke-linejoin="round">
      <g transform="translate(680.000000, 820.000000)">
        <path d="M0.75,16.9132 L2.75,16.9132"></path>
        <path d="M4.7429,8.6142 L6.0829,9.6632"></path>
        <path d="M6.6225,24.3299 L5.5445,25.2499"></path>
        <path d="M18.3363,20.8863 C18.3103,21.0443 18.2873,21.2033 18.2873,21.3683 C18.2873,23.0043 19.6133,24.3303 21.2493,24.3303 C22.6833,24.3303 23.8783,23.3113 24.1513,21.9583"></path>
        <path d="M34.159,8.062 C34.159,9.915 32.657,11.418 30.803,11.418 C28.95,11.418 27.448,9.915 27.448,8.062 C27.448,6.209 28.95,4.706 30.803,4.706 C32.657,4.706 34.159,6.209 34.159,8.062 L34.159,8.062 Z"></path>
        <path d="M27.096,1.5574 C26.46,1.1974 25.752,0.9364 24.975,0.7934 C20.919,0.0454 17.78,3.1254 16.119,7.6504 C14.458,12.1744 13.418,14.2414 11.085,16.7984 C10.178,17.7934 10.586,19.4584 11.811,19.6844 L30.591,23.1444 C31.817,23.3704 32.794,21.9574 32.297,20.7044 C31.574,18.8814 31.058,17.3894 30.821,15.5534 C30.815,15.5534 30.809,15.5544 30.803,15.5544"></path>
      </g>
    </g>
  </g>
</svg>
