<svg width="100%" height="100%" viewBox="0 0 13 13">
  <g stroke="none" stroke-width="1" fill="none" fill-rule="evenodd">
    <g transform="translate(-494.000000, -412.000000)" fill="__COLOR__">
      <g transform="translate(492.000000, 378.000000)">
        <g transform="translate(2.000000, 23.000000)">
          <g transform="translate(0.000000, 11.000000)">
            <path d="M0.928003247,1.98866342 L11.0113366,12.0719968 C11.3042298,12.36489 11.7791035,12.36489 12.0719968,12.0719968 C12.36489,11.7791035 12.36489,11.3042298 12.0719968,11.0113366 L1.98866342,0.928003247 C1.6957702,0.635110029 1.22089647,0.635110029 0.928003247,0.928003247 C0.635110029,1.22089647 0.635110029,1.6957702 0.928003247,1.98866342 L0.928003247,1.98866342 Z"></path>
            <path d="M11.0113366,0.928003247 L0.928003247,11.0113366 C0.635110029,11.3042298 0.635110029,11.7791035 0.928003247,12.0719968 C1.22089647,12.36489 1.6957702,12.36489 1.98866342,12.0719968 L12.0719968,1.98866342 C12.36489,1.6957702 12.36489,1.22089647 12.0719968,0.928003247 C11.7791035,0.635110029 11.3042298,0.635110029 11.0113366,0.928003247 L11.0113366,0.928003247 Z"></path>
          </g>
        </g>
      </g>
    </g>
  </g>
</svg>
