<svg width="100%" height="100%" viewBox="0 0 7 7">
  <g stroke="none" stroke-width="1" fill="none" fill-rule="evenodd">
    <g transform="translate(-409.000000, -341.000000)" fill="__COLOR__">
      <path d="M412.5,346.5 L412.5,346.5 C413.604569,346.5 414.5,345.604569 414.5,344.5 C414.5,343.395431 413.604569,342.5 412.5,342.5 C411.395431,342.5 410.5,343.395431 410.5,344.5 C410.5,345.604569 411.395431,346.5 412.5,346.5 L412.5,346.5 Z M412.5,348 L412.5,348 C410.567003,348 409,346.432997 409,344.5 C409,342.567003 410.567003,341 412.5,341 C414.432997,341 416,342.567003 416,344.5 C416,346.432997 414.432997,348 412.5,348 L412.5,348 Z"></path>
    </g>
  </g>
</svg>
