<svg viewBox="0 0 16 16">
  <g id="Page-1" stroke="none" stroke-width="1" fill="none" fill-rule="evenodd">
    <g id="error" transform="translate(1.000000, 1.000000)" fill="#EB5C2D">
      <circle id="Oval-1" stroke="#EB5C2D" cx="7" cy="7" r="7"></circle>
      <path d="M7.19305755,6.99866857 L9.76005706,4.4343319 C9.81331432,4.38107467 9.81331432,4.29320021 9.76005706,4.23994295 C9.7067998,4.18668569 9.61892533,4.18668569 9.56566811,4.23994295 L6.99866857,6.80694245 L4.4343319,4.23994295 C4.38107467,4.18668569 4.29320021,4.18668569 4.23994295,4.23994295 C4.18668569,4.29320021 4.18668569,4.38107467 4.23994295,4.4343319 L6.80694245,6.99866857 L4.23994295,9.56566811 C4.18668569,9.61892533 4.18668569,9.70413696 4.23994295,9.76005706 C4.29320021,9.81331432 4.38107467,9.81331432 4.4343319,9.76005706 L6.99866857,7.19305755 L9.56566811,9.76005706 C9.61892533,9.81331432 9.7067998,9.81331432 9.76005706,9.76005706 C9.81331432,9.70413696 9.81331432,9.61892533 9.76005706,9.56566811 L7.19305755,6.99866857" id="Fill-256" stroke="#B34622"></path>
    </g>
  </g>
</svg>
