<svg width="100%" height="100%" viewBox="0 0 18 18">
  <g stroke="none" stroke-width="1" fill="none" fill-rule="evenodd">
    <g transform="translate(-752.000000, -1448.000000)" stroke="__COLOR__" stroke-width="1.5" stroke-linecap="round" stroke-linejoin="round">
      <g transform="translate(753.000000, 1449.000000)">
        <path d="M10.7945455,7.83447273 C10.8338182,9.3072 9.67163636,10.5333818 8.19818182,10.5719273 C6.72545455,10.6112 5.5,9.44901818 5.46072727,7.97629091 C5.42145455,6.50283636 6.58363636,5.27738182 8.05709091,5.23810909 C9.52981818,5.19956364 10.7552727,6.36174545 10.7945455,7.83447273 L10.7945455,7.83447273 Z"></path>
        <path d="M15.7035636,9.55876364 C15.8199273,9.02276364 15.8824727,8.46785455 15.8817455,7.8984 L13.5537455,6.68385455 C13.4461091,6.20385455 13.2730182,5.75003636 13.0504727,5.32676364 L14.0722909,2.92312727 C13.7057455,2.48676364 13.2941091,2.08967273 12.8417455,1.74276364 L10.3893818,2.82858182 C10.0082909,2.6584 9.60683636,2.52821818 9.1872,2.44676364 L7.94429091,0.147127273 C7.93629091,0.147127273 7.92901818,0.1464 7.92174545,0.1464 C7.31010909,0.1624 6.71956364,0.256218182 6.15156364,0.405309091 L5.46501818,3.02567273 C5.17047273,3.1864 4.89338182,3.37403636 4.63447273,3.58349091 L2.02210909,3.1144 C1.63010909,3.61258182 1.30647273,4.16385455 1.04538182,4.74858182 L2.65556364,6.9064 C2.60465455,7.1864 2.58065455,7.4744 2.57410909,7.76749091 L0.545745455,9.54567273 C0.682472727,10.1820364 0.8992,10.7864 1.18138182,11.3529455 L3.83738182,11.4380364 C4.03956364,11.6831273 4.26210909,11.9085818 4.50210909,12.1158545 L4.62938182,14.8344 C5.17192727,15.1085818 5.75301818,15.3129455 6.35810909,15.4547636 L8.05556364,13.4605818 C8.12901818,13.4613091 8.20101818,13.4678545 8.2752,13.4656727 C8.60829091,13.4569455 8.9312,13.4140364 9.24683636,13.3493091 L11.4279273,14.9274909 C11.9537455,14.6802182 12.4439273,14.3725818 12.8962909,14.0184 L12.3981091,11.4613091 C12.7006545,11.0984 12.9566545,10.6976727 13.1595636,10.2664 L15.7035636,9.55876364 L15.7035636,9.55876364 Z"></path>
      </g>
    </g>
  </g>
</svg>
