<svg viewBox="0 0 23 21">
  <g stroke="__COLOR__" stroke-width="1.5" fill="none" fill-rule="evenodd">
    <path d="M13.85 11.386h4.527m-4.527 3.42h3.307" stroke-linecap="round" stroke-linejoin="round"/>
    <path d="M9.352 12.66c0 1.244-1.01 2.253-2.253 2.253-1.247 0-2.256-1.01-2.256-2.253 0-1.244 1.01-2.253 2.253-2.253s2.252 1.01 2.252 2.253z"/>
    <path d="M11.35 19.856c-.796-1.54-2.4-2.592-4.25-2.592-1.853 0-3.454 1.053-4.25 2.592" stroke-linecap="round"/>
    <path d="M13.3 8.184H9.466c-.74 0-1.34-.6-1.34-1.34V3.012c0-.74.6-1.34 1.34-1.34H13.3c.74 0 1.34.6 1.34 1.34v3.832c0 .74-.6 1.34-1.34 1.34z" stroke-linecap="round" stroke-linejoin="round"/>
    <path d="M8.127 5.928H2.64c-1.044 0-1.89.787-1.89 1.758v10.806c0 .97.847 1.758 1.892 1.758h17.483c1.044 0 1.89-.787 1.89-1.758V7.686c0-.97-.846-1.758-1.89-1.758H14.64" stroke-linecap="round" stroke-linejoin="round"/>
  </g>
</svg>
