<svg viewBox="0 0 17 27">
  <g stroke="__COLOR__" stroke-width="1.5" stroke-linecap="round" stroke-linejoin="round" fill="none" fill-rule="evenodd">
    <path d="M12.487 26H4.593C2.608 26 1 24.392 1 22.408V4.556C1 2.572 2.608.964 4.593.964h7.894c1.984 0 3.592 1.608 3.592 3.592v17.852c0 1.984-1.61 3.592-3.594 3.592z"/>
    <path d="M9.453 21.404c0 .504-.41.913-.913.913-.504 0-.913-.41-.913-.913 0-.504.41-.913.913-.913.504 0 .913.41.913.915zM7.07 3h2.938M6.18 12.91l1.923 1.338 3.29-4.04"/>
  </g>
</svg>
