<svg viewBox="0 0 17 27">
  <g stroke="__COLOR__" fill="none" fill-rule="evenodd">
    <path d="M9.203 21.654c0 .504-.41.913-.913.913-.504 0-.913-.41-.913-.913 0-.504.41-.913.913-.913.504 0 .913.41.913.917z" stroke-width="1.5" stroke-linecap="round" stroke-linejoin="round"/>
    <path d="M5.56 15.38c0 .505-.41.914-.914.914s-.913-.41-.913-.913c0-.5.41-.91.913-.91.504 0 .913.41.913.914z"/>
    <path d="M12.48 11.964c0 1.082-.877 1.96-1.96 1.96-1.08 0-1.958-.878-1.958-1.96 0-1.082.877-1.96 1.96-1.96 1.08 0 1.958.878 1.958 1.96zM6.82 4.07h2.938" stroke-width="1.5" stroke-linecap="round" stroke-linejoin="round"/>
    <path d="M15.83 4.806c0-1.984-1.61-3.592-3.593-3.592H4.342C2.358 1.214.75 2.822.75 4.806v17.852c0 1.984 1.608 3.592 3.592 3.592h7.895c1.984 0 3.592-1.608 3.592-3.592V4.806zM4.646 15.38l4.19-2.428" stroke-width="1.5" stroke-linecap="round" stroke-linejoin="round"/>
  </g>
</svg>
