<svg height="100%" width="100%" viewBox="-2 -2 16 16" preserveAspectRatio="xMidYMid meet">
  <path d="M4.87606664,9.0028134 C2.59706811,9.0028134 0.750164098,7.1572366 0.750164098,4.87652391 C0.750164098,2.59581119 2.59706811,0.75023445 4.87606664,0.75023445 C7.15506517,0.75023445 9.00196918,2.59581119 9.00196918,4.87652391 C9.00196918,7.1572366 7.15506517,9.0028134 4.87606664,9.0028134 L4.87606664,9.0028134 L4.87606664,9.0028134 Z M11.8953521,11.3885589 L8.56462351,8.057518 C9.30278498,7.2022507 9.75213328,6.09190372 9.75213328,4.87652391 C9.75213328,2.18318224 7.56915575,-8.8817842e-16 4.87606664,-8.8817842e-16 C2.18297753,-8.8817842e-16 0,2.18318224 0,4.87652391 C0,7.5698656 2.18297753,9.7530478 4.87606664,9.7530478 C6.09433314,9.7530478 7.204576,9.3029072 8.05901291,8.5676774 L11.3904917,11.8987183 C11.5300222,12.0337606 11.7558216,12.0337606 11.8953521,11.8987183 C12.0348826,11.7561738 12.0348826,11.5311035 11.8953521,11.3885589 L11.8953521,11.3885589 L11.8953521,11.3885589 Z" fill="__COLOR__"></path>
</svg>
