<svg viewBox="0 0 16 18" preserveAspectRatio="xMidYMid meet" width="100%" height="100%">
  <path fill="__COLOR__" d="M1.45454548,17 L1.45454548,15.5454545 L7.2727273,13.7272727 L7.2727273,11.9090909 C5.58697587,11.2052388 4.36363637,9 4.36383437,6.50058267 C4.36363637,5.36363637 5.09090912,2.45454545 8.36363639,2.45454545 C11.6363637,2.45454545 11.6363637,5.36363636 11.6363637,6.50058261 C11.6363637,9.04603716 10.4239351,11.1945452 8.72727276,11.9090907 L8.72727276,13.7272727 L14.5454546,15.5454543 L14.5454546,16.9999998 L1.45454548,17 Z M13.0909091,6.81818182 C13.0909091,3.90909091 12,1 8.36342784,1 C4.72685567,1 2.90909091,3.90909091 2.90909091,6.81818182 C2.90909091,9 3.92845663,11.6 5.81818182,12.6363636 C4.93031094,12.8545455 0,14.8181818 0,14.8181818 L9.30173167e-09,18.4545455 L8.39887723,18.4490909 L15.9999995,18.4490911 L16,14.8181818 C16,14.8181818 11.0128607,12.6836364 10.2411548,12.4927273 C12.1194271,11.4509091 13.0909091,9 13.0909091,6.81818182 Z"></path>
</svg>
