<svg viewBox="0 0 27 17">
  <g fill="none" fill-rule="evenodd">
    <path d="M.75 3.613c0-1.376 1.115-2.49 2.49-2.49 1.377 0 2.493 1.114 2.493 2.49 0 1.376-1.116 2.49-2.492 2.49-1.37 0-2.49-1.113-2.49-2.49zm9.726 10.147c0-1.377 1.115-2.492 2.49-2.492 1.377 0 2.493 1.115 2.493 2.49 0 1.377-1.12 2.492-2.497 2.492s-2.49-1.115-2.49-2.49z" stroke="__COLOR__" stroke-width="1.5"/>
    <path d="M21.265.905L25.82 5.46M21.265.905L25.82 5.46m-4.555 0L25.82.906M21.265 5.46L25.82.906" stroke="__COLOR__" stroke-width="1.5" stroke-linecap="round" stroke-linejoin="round"/>
    <path d="M6.232 8.29c-.36-.35-.36-.92 0-1.27.35-.35.92-.35 1.27 0s.35.92 0 1.27c-.18.18-.41.27-.64.27-.23 0-.46-.09-.63-.27m2.12 2.13c-.35-.35-.35-.92 0-1.27.35-.36.92-.36 1.27-.01v.01c.35.35.35.92 0 1.27-.17.17-.4.26-.63.26-.23 0-.46-.09-.64-.26m10.062-2.11c-.35-.35-.35-.93 0-1.28.36-.35.93-.35 1.28 0s.35.93 0 1.28c-.18.17-.41.26-.64.26-.23 0-.46-.09-.64-.26m-2.12 2.12c-.35-.35-.35-.92 0-1.28.36-.35.92-.35 1.28 0 .35.36.35.93 0 1.28-.18.17-.41.26-.64.26-.23 0-.46-.09-.64-.26" fill="__COLOR__"/>
  </g>
</svg>
